<svg xmlns="http://www.w3.org/2000/svg" width="111.842" height="39.778" viewBox="0 0 111.842 39.778">
  <g id="Group_9572" data-name="Group 9572" transform="translate(-270 -17.235)">
    <text id="askrefer" transform="translate(315 47.013)" fill="#8584ff" font-size="24" font-family="SourceSansPro-Bold, Source Sans Pro" font-weight="700"><tspan x="-44.424" y="0">ask</tspan><tspan y="0" fill="#fdc84e">refer</tspan></text>
    <g id="send_1_" data-name="send (1)" transform="translate(359.894 17.235)">
      <g id="Group_9437" data-name="Group 9437">
        <g id="Group_9436" data-name="Group 9436">
          <path id="Path_13560" data-name="Path 13560" d="M21.044.219.368,10.682a.641.641,0,0,0-.151.108.686.686,0,0,0-.116.147.727.727,0,0,0-.074.175A.752.752,0,0,0,0,11.306a.768.768,0,0,0,.024.2.735.735,0,0,0,.071.177.685.685,0,0,0,.113.149.635.635,0,0,0,.15.111L6.867,15.48,8.41,14.8l-.632,1.67L11.02,23.5a.688.688,0,0,0,.1.157.66.66,0,0,0,.135.122.619.619,0,0,0,.163.079.594.594,0,0,0,.362,0,.622.622,0,0,0,.161-.08.661.661,0,0,0,.135-.124.7.7,0,0,0,.1-.163L21.9,1.152a.634.634,0,0,0,.034-.4A.8.8,0,0,0,21.74.393a.713.713,0,0,0-.325-.209.5.5,0,0,0-.372.034Z" fill="#fdc84e"/>
        </g>
      </g>
      <g id="Group_9439" data-name="Group 9439" transform="translate(6.051 8.684)">
        <g id="Group_9438" data-name="Group 9438">
          <path id="Path_13561" data-name="Path 13561" d="M7.729.292A.816.816,0,0,0,7.459.1a.768.768,0,0,0-.613,0,.806.806,0,0,0-.27.19L0,7.283.772,7.7l.386.823,6.571-7a.871.871,0,0,0,.179-.287.929.929,0,0,0,0-.655A.881.881,0,0,0,7.729.292Z" fill="#5a59ff"/>
        </g>
      </g>
    </g>
  </g>
</svg>
